<svg xmlns="http://www.w3.org/2000/svg" style="display: none;"><symbol id="medal" viewBox="-28 0 449 449.004"><title>medal</title><path d="m218.609375 269.546875c0-6.019531.605469-12.023437 1.804687-17.921875-21.023437-10.3125-44.132812-15.65625-67.546874-15.625-41.285157 0-79.6875 16.015625-108.132813 45.09375-27.398437 28.007812-43.136719 65.894531-44.73046875 107.308594h246.81249975v-53.351563c-17.96875-17.054687-28.164062-40.730469-28.207031-65.503906zm0 0"/><path d="m317.597656 258.316406-4.726562-14.148437-4.726563 14.148437c-.957031 2.855469-3.628906 4.78125-6.640625 4.78125h-14.746094l11.765626 8.320313c2.519531 1.78125 3.574218 5.003906 2.597656 7.933593l-4.597656 13.761719 12.296874-8.699219c2.421876-1.710937 5.660157-1.710937 8.082032 0l12.300781 8.699219-4.597656-13.765625c-.980469-2.925781.078125-6.148437 2.597656-7.933594l11.765625-8.316406h-14.738281c-3.011719-.003906-5.679688-1.929687-6.632813-4.78125zm0 0"/><path d="m260.816406 346.136719v102.867187l47.292969-43.808594c2.683594-2.484374 6.832031-2.484374 9.515625 0l47.300781 43.808594v-102.867187c-31.695312 20.433593-72.410156 20.433593-104.101562 0zm0 0"/><path d="m312.867188 191.628906c-44.253907 0-80.257813 34.953125-80.257813 77.917969s36 77.917969 80.257813 77.917969c44.257812 0 80.257812-34.953125 80.257812-77.917969s-36.003906-77.917969-80.257812-77.917969zm52.175781 70.179688-25.5 18.035156 9.71875 29.097656c.957031 2.871094-.039063 6.03125-2.46875 7.835938-2.429688 1.804687-5.742188 1.84375-8.214844.097656l-25.707031-18.175781-25.707032 18.175781c-2.472656 1.746094-5.785156 1.707031-8.214843-.097656-2.429688-1.804688-3.425781-4.964844-2.46875-7.835938l9.71875-29.097656-25.5-18.035156c-2.492188-1.761719-3.554688-4.929688-2.628907-7.835938.921876-2.90625 3.621094-4.878906 6.667969-4.878906h31.730469l9.765625-29.25c.953125-2.859375 3.628906-4.785156 6.640625-4.785156s5.6875 1.925781 6.640625 4.785156l9.765625 29.25h31.730469c3.046875 0 5.746093 1.972656 6.671875 4.878906.921875 2.90625-.140625 6.074219-2.632813 7.835938zm0 0"/><path d="m241.867188 89c0 49.152344-39.847657 89-89 89-49.152344 0-89-39.847656-89-89s39.847656-89 89-89c49.152343 0 89 39.847656 89 89zm0 0"/></symbol><symbol id="rocket-hitting-target" viewBox="0 0 47.001 47.001"><title>rocket-hitting-target</title><path d="M34.658,22.375c-0.089,0.09-0.172,0.185-0.261,0.273c-1.138,1.137-2.32,2.035-3.485,2.759 c1.608,2.37,2.812,4.805,3.485,7.163c1.02,3.561,0.685,6.521-0.917,8.124c-0.996,0.995-2.455,1.502-4.337,1.502 c-4.782,0-10.932-3.18-16.046-8.296C5.088,25.891,3.087,16.729,6.3,13.514c0.996-0.996,2.455-1.5,4.337-1.5 c3.268,0,7.175,1.485,10.954,4.059c0.726-1.161,1.621-2.342,2.755-3.476c0.091-0.092,0.188-0.177,0.279-0.267 c-4.687-3.266-9.634-5.122-13.988-5.122c-3.157,0-5.831,1.006-7.734,2.909c-5.715,5.715-2.729,17.653,6.797,27.18 c6.074,6.077,13.344,9.704,19.443,9.704c3.156,0,5.831-1.007,7.733-2.909c2.914-2.914,3.675-7.475,2.14-12.843 C38.176,28.3,36.673,25.273,34.658,22.375z"/><path d="M14.691,15.647c-1.678,0-2.717,0.688-3.294,1.264c-0.894,0.894-2.13,2.992-0.363,7.008c1,2.272,2.788,4.758,5.035,7.006 c3.66,3.662,7.769,5.937,10.721,5.937c1.678,0,2.717-0.688,3.293-1.263c0.894-0.895,2.132-2.993,0.365-7.009 c-0.322-0.729-0.732-1.481-1.205-2.242c-3.588,1.782-6.611,1.944-6.794,1.954c-1.008,0.042-1.992-0.343-2.704-1.054 c-0.711-0.711-1.095-1.696-1.051-2.701c0.008-0.185,0.167-3.203,1.945-6.786C18.479,16.422,16.393,15.647,14.691,15.647z"/><path d="M46.961,7.708c-0.103-0.406-0.406-0.733-0.81-0.857l-4.572-1.435l-1.435-4.575c-0.126-0.4-0.453-0.706-0.859-0.807 c-0.408-0.1-0.84,0.021-1.138,0.317l-4.169,4.17c-0.282,0.283-0.407,0.688-0.329,1.081l0.515,2.613 c-2.434,1.178-5.508,3.468-8.119,6.078c-4.655,4.656-4.941,10.123-4.951,10.354c-0.014,0.336,0.113,0.662,0.351,0.9 c0.239,0.236,0.564,0.365,0.901,0.351c0.231-0.01,5.698-0.296,10.354-4.951c2.608-2.612,4.899-5.688,6.076-8.119l2.615,0.514 c0.394,0.078,0.797-0.046,1.08-0.329l4.17-4.17C46.938,8.548,47.061,8.118,46.961,7.708z"/></symbol><symbol id="flag" viewBox="0 0 512 512"><title>flag</title><path d="M502.379,490.803c-18.938-41.726-52.071-77.316-95.818-102.921c-40.256-23.561-86.93-37.024-135.8-39.283v-191.22 c21.925-5.73,44.833-1.014,68.909,3.941c17.427,3.587,35.188,7.243,53.367,7.243c13.893,0,28.031-2.136,42.446-8.069l9.312-3.834 V24.673l-20.812,8.567c-24.736,10.183-50.715,4.836-78.221-0.826c-24.275-4.998-49.204-10.118-75-5.314V0h-30.124v348.625 c-48.651,2.341-95.108,15.792-135.199,39.256C61.692,413.486,28.558,449.076,9.62,490.802L0,512h512L502.379,490.803z"/></symbol><symbol id="settings-work-tool" viewBox="0 0 268.765 268.765"><title>settings-work-tool</title><path style="fill-rule:evenodd;clip-rule:evenodd;" d="M267.92,119.461c-0.425-3.778-4.83-6.617-8.639-6.617 c-12.315,0-23.243-7.231-27.826-18.414c-4.682-11.454-1.663-24.812,7.515-33.231c2.889-2.641,3.24-7.062,0.817-10.133 c-6.303-8.004-13.467-15.234-21.289-21.5c-3.063-2.458-7.557-2.116-10.213,0.825c-8.01,8.871-22.398,12.168-33.516,7.529 c-11.57-4.867-18.866-16.591-18.152-29.176c0.235-3.953-2.654-7.39-6.595-7.849c-10.038-1.161-20.164-1.197-30.232-0.08 c-3.896,0.43-6.785,3.786-6.654,7.689c0.438,12.461-6.946,23.98-18.401,28.672c-10.985,4.487-25.272,1.218-33.266-7.574 c-2.642-2.896-7.063-3.252-10.141-0.853c-8.054,6.319-15.379,13.555-21.74,21.493c-2.481,3.086-2.116,7.559,0.802,10.214 c9.353,8.47,12.373,21.944,7.514,33.53c-4.639,11.046-16.109,18.165-29.24,18.165c-4.261-0.137-7.296,2.723-7.762,6.597 c-1.182,10.096-1.196,20.383-0.058,30.561c0.422,3.794,4.961,6.608,8.812,6.608c11.702-0.299,22.937,6.946,27.65,18.415 c4.698,11.454,1.678,24.804-7.514,33.23c-2.875,2.641-3.24,7.055-0.817,10.126c6.244,7.953,13.409,15.19,21.259,21.508 c3.079,2.481,7.559,2.131,10.228-0.81c8.04-8.893,22.427-12.184,33.501-7.536c11.599,4.852,18.895,16.575,18.181,29.167 c-0.233,3.955,2.67,7.398,6.595,7.85c5.135,0.599,10.301,0.898,15.481,0.898c4.917,0,9.835-0.27,14.752-0.817 c3.897-0.43,6.784-3.786,6.653-7.696c-0.451-12.454,6.946-23.973,18.386-28.657c11.059-4.517,25.286-1.211,33.281,7.572 c2.657,2.89,7.047,3.239,10.142,0.848c8.039-6.304,15.349-13.534,21.74-21.494c2.48-3.079,2.13-7.559-0.803-10.213 c-9.353-8.47-12.388-21.946-7.529-33.524c4.568-10.899,15.612-18.217,27.491-18.217l1.662,0.043 c3.853,0.313,7.398-2.655,7.865-6.588C269.044,139.917,269.058,129.639,267.92,119.461z M134.595,179.491 c-24.718,0-44.824-20.106-44.824-44.824c0-24.717,20.106-44.824,44.824-44.824c24.717,0,44.823,20.107,44.823,44.824 C179.418,159.385,159.312,179.491,134.595,179.491z"/></symbol><symbol id="seo-performance-marketing-graphic" viewBox="0 0 96.343 96.343"><title>seo-performance-marketing-graphic</title><path d="M94.171,20.444L82.449,10.222L70.728,0L59.005,10.222L47.283,20.444h12.828C55.792,46.975,31.278,67.613,3.382,63.225 c-1.227-0.191-1.724,1.46-0.518,1.879c34.716,12.082,74.711-7.77,80.497-44.66H94.171z"/><path d="M68.171,54.722c-3.604,3.332-7.635,6.235-12,8.663v32.958h12V54.722z"/><path d="M38.171,96.343h12V66.324c-3.813,1.625-7.827,2.906-12,3.802V96.343z"/><path d="M74.171,96.343h12V23.444h-0.303c-1.883,9.304-5.971,17.725-11.697,24.837V96.343z"/><path d="M14.171,70.926c-4.075-0.596-8.088-1.552-12-2.895v28.312h12V70.926z"/><path d="M20.171,96.343h12V71.135c-2.729,0.331-5.51,0.505-8.335,0.505c-1.226,0-2.447-0.046-3.665-0.112V96.343z"/></symbol><symbol id="money" viewBox="0 0 512 512"><title>money</title><path d="M442.656,150.156v0.031C446.031,143.063,448,135.625,448,128V96c0-53-85.969-96-192-96S64,43,64,96 c0-2.625,0.375-5.188,0.781-7.75C25.125,105.813,0,131.438,0,160v32c0,29.688,27,56.219,69.344,73.812l0,0 C65.969,272.938,64,280.375,64,288v32c0,11.25,4.063,21.969,11.188,32C68.063,362.031,64,372.75,64,384v32c0,53,85.969,96,192,96 s192-43,192-96v-32c0-11.438-4.219-22.344-11.531-32.5c-0.062,0.062-0.125,0.156-0.188,0.219 c5.375-7.625,9.594-15.562,10.938-23.969C486.875,310.156,512,284.562,512,256v-32C512,194.313,485,167.75,442.656,150.156z M256,16c103.719,0,176,42.156,176,80c0,37.813-72.281,80-176,80S80,133.813,80,96C80,58.156,152.281,16,256,16z M16,160 c0-18.688,17.719-38.344,48-53.531V128c0,53,85.969,96,192,96c15.844,0,31.156-1.063,45.875-2.875 C272.531,232.406,235.25,240,192,240C88.281,240,16,197.813,16,160z M432,384c0,37.812-72.281,80-176,80S80,421.812,80,384 c0-6.281,2.688-12.656,6.469-18.969c-0.031-0.031-0.094-0.094-0.125-0.156C118.563,395.281,182.438,416,256,416 c73.656,0,137.219-20.875,169.375-51.344c-0.031,0.031-0.031,0.031-0.062,0.062C429.25,371.125,432,377.594,432,384z M365.938,349.125C336.562,360.438,299.281,368,256,368c-103.719,0-176-42.188-176-80c0-5.438,1.875-10.938,4.719-16.375 c15.688,5.281,33.031,9.438,51.563,12.219C160.156,323.281,233.344,352,320,352c15.906,0,31.281-1.062,46.062-2.906 C366.031,349.094,366,349.125,365.938,349.125z M320,304c-41.062,0-76.875-6.75-105.563-17.094 c90.219-5.313,161.469-41.531,168.781-87.156c21.781-9.656,39.22-21.688,50.438-35.375c-0.031,0-0.031,0-0.031,0 C472.375,180.125,496,202.625,496,224C496,261.812,423.719,304,320,304z M290.188,119.313c0-3.375-2.688-5.969-8.062-7.688 c-5.375-1.75-17.344-4-35.875-6.688c-16.656-2.344-29.688-4.688-39.063-7s-17-5.563-22.844-9.688 c-5.844-4.188-8.781-9.063-8.781-14.563c0-7.25,5.25-13.813,15.688-19.625c10.438-5.781,26.875-9.313,49.313-10.625V32h30.313 v11.438c33.875,1.688,55.813,9.5,65.781,23.563l-41.75,7c-8.156-9.625-20.72-14.438-37.781-14.438 c-8.563,0-15.438,1.063-20.594,3.25c-5.188,2.125-7.781,4.75-7.781,7.813c0,3.125,2.5,5.5,7.5,7.188 c4.969,1.656,15.688,3.688,32.063,6.188c18,2.688,32.125,5.219,42.344,7.625c10.25,2.375,18.406,5.688,24.531,9.906 c6.094,4.219,9.155,9.156,9.155,14.781c0,8.688-6.312,15.875-18.905,21.656c-12.594,5.781-30.781,9.188-54.563,10.219V163h-30.313 v-14.75c-39.656-1.656-64.188-11.125-73.656-28.313l46.875-5c4.344,10.813,18.719,16.219,43.125,16.219 c11.405,0,19.844-1.156,25.219-3.469S290.188,122.594,290.188,119.313z"/></symbol><symbol id="savings" viewBox="0 0 512 512"><title>savings</title><g> <g> <path d="M276.995,98.317c0,4.119,0.013,13.621,14.758,17.442V80.874C277.008,84.696,276.995,94.198,276.995,98.317z"/> </g> </g><g> <g> <path d="M322.168,149.452v34.884c14.745-3.82,14.758-13.322,14.758-17.442C336.926,162.774,336.913,153.272,322.168,149.452z"/> </g> </g><g> <g> <path d="M306.96,0c-73.119,0-132.605,59.486-132.605,132.605s59.487,132.605,132.605,132.605 c73.119,0,132.605-59.486,132.605-132.605S380.08,0,306.96,0z M347.342,127.743c13.084,8.728,19.999,22.266,19.999,39.151 s-6.916,30.423-19.999,39.151c-6.932,4.624-15.366,7.706-25.174,9.229v14.957h-30.416v-14.957 c-9.808-1.524-18.242-4.605-25.174-9.229c-13.084-8.728-19.999-22.266-19.999-39.151h30.416c0,4.119,0.013,13.621,14.758,17.442 v-37.638c-9.808-1.524-18.242-4.606-25.174-9.23c-13.084-8.728-19.999-22.266-19.999-39.151c0-16.885,6.916-30.423,19.999-39.151 c6.932-4.624,15.366-7.706,25.174-9.23V34.979h30.416v14.957c9.808,1.524,18.242,4.605,25.174,9.23 c13.084,8.728,19.999,22.266,19.999,39.151h-30.416c0-4.119-0.013-13.621-14.758-17.442v37.638 C331.976,120.038,340.411,123.119,347.342,127.743z"/> </g> </g><g> <g> <polygon points="0.28,305.681 0.28,512 75.285,512 75.285,481.584 75.285,472.804 75.285,336.097 75.285,307.919 75.285,305.681 "/> </g> </g><g> <g> <polygon points="500.436,354.179 373.879,388.961 266.058,362.665 273.265,333.116 373.424,357.543 373.651,357.48 373.651,318.419 233.628,283.355 105.701,303.201 105.701,305.681 105.701,333.981 105.701,438.787 105.701,469.394 179.63,461.101 322.874,501.312 511.72,397.229 "/> </g> </g></symbol><symbol id="loan" viewBox="-31 0 512 512"><title>loan</title><path d="m98.789062 91h81.210938v-82.210938zm0 0"/><path d="m450 0h-240v121h-120v60c66.167969 0 120 53.832031 120 120 0 30.15625-11.5625 57.425781-30 78.527344v71.472656h270zm-135 181c-24.8125 0-45-20.1875-45-45 0-19.53125 12.578125-36.023438 30-42.238281v-32.761719h30v32.761719c17.421875 6.214843 30 22.707031 30 42.238281h-30c0-8.277344-6.722656-15-15-15s-15 6.722656-15 15 6.722656 15 15 15c24.8125 0 45 20.1875 45 45 0 19.53125-12.578125 36.023438-30 42.238281v32.761719h-30v-32.761719c-17.421875-6.214843-30-22.707031-30-42.238281h30c0 8.277344 6.722656 15 15 15s15-6.722656 15-15-6.722656-15-15-15zm75 210h-150v-30h150zm0-60h-150v-30h150zm0 0"/><path d="m90 286c-8.277344 0-15 6.722656-15 15s6.722656 15 15 15 15-6.722656 15-15-6.722656-15-15-15zm0 0"/><path d="m90 211c-49.707031 0-90 40.292969-90 90s40.292969 90 90 90 90-40.292969 90-90-40.292969-90-90-90zm0 135c-24.8125 0-45-20.1875-45-45s20.1875-45 45-45 45 20.1875 45 45-20.1875 45-45 45zm0 0"/><path d="m150 404.304688c-17.722656 10.339843-38.046875 16.695312-60 16.695312s-42.277344-6.355469-60-16.695312v107.695312l60-30 60 30zm0 0"/></symbol><symbol id="money-bag-with-dollar-symbol" viewBox="0 0 424.98 424.98"><title>money-bag-with-dollar-symbol</title><g> <path d="M241.395,282.304c-1.587-1.738-3.595-3.038-5.67-4.121c-4.518-2.356-9.459-3.785-14.365-5.075v38.016 c7.963-0.9,17.105-3.79,21.286-11.224l0,0c1.996-3.551,2.393-7.914,1.58-11.867C243.785,285.891,242.874,283.925,241.395,282.304 z"/> </g><g> <path d="M242.604,299.973c0.016-0.027,0.025-0.044,0.042-0.073l0,0C242.632,299.924,242.618,299.948,242.604,299.973z"/> </g><g> <path d="M184.009,221.532c-1.369,1.999-2.228,4.27-2.465,6.684c-0.237,2.419-0.104,5.11,0.815,7.387 c0.875,2.17,2.708,3.772,4.6,5.062c2.123,1.444,4.458,2.572,6.836,3.528c1.995,0.803,4.239,1.571,6.658,2.313v-34.4 C194.342,213.41,187.665,216.194,184.009,221.532z"/> </g><g> <path d="M242.804,299.619c-0.05,0.089-0.104,0.182-0.157,0.28l0,0C242.709,299.785,242.758,299.701,242.804,299.619z"/> </g><g> <path d="M243.004,299.263C243.017,299.239,243.019,299.237,243.004,299.263L243.004,299.263z"/> </g><g> <path d="M234.753,92.469c32.329-27.158,53.931-88.341,40.637-91.017c-17.664-3.557-56.022,12.04-74.562,14.788 c-26.296,3.175-54.936-28.515-71.012-10.851c-13.071,14.362,9.371,66.592,44.482,89.346 C69.546,146.219-77.69,404.673,179.171,423.426C534.582,449.375,356.615,142.639,234.753,92.469z M265.276,296.298 c-1.093,10.076-6.433,19.188-14.415,25.374c-8.428,6.532-18.999,9.57-29.502,10.421v11.133c0,2.979-1.301,5.86-3.531,7.832 c-3.065,2.712-7.569,3.381-11.289,1.667c-3.673-1.69-6.086-5.457-6.086-9.499v-12.168c-1.801-0.342-3.589-0.749-5.356-1.234 c-9.816-2.697-18.921-7.954-25.572-15.732c-3.313-3.877-6.014-8.276-7.882-13.025c-0.488-1.241-0.923-2.505-1.304-3.783 c-0.345-1.157-0.701-2.333-0.824-3.539c-0.207-2.023,0.194-4.087,1.137-5.889c1.938-3.707,6.022-5.946,10.192-5.574 c4.104,0.364,7.701,3.212,8.993,7.124c0.398,1.205,0.668,2.44,1.115,3.632c0.443,1.184,0.978,2.335,1.607,3.431 c1.242,2.158,2.798,4.148,4.59,5.875c3.694,3.559,8.399,5.872,13.304,7.248v-41.362c-9.591-2.483-19.491-5.69-27.411-11.848 c-3.849-2.994-7.115-6.714-9.254-11.117c-2.257-4.647-3.192-9.824-3.23-14.966c-0.039-5.221,0.953-10.396,3.131-15.153 c2.04-4.454,4.977-8.453,8.578-11.768c7.7-7.087,17.928-11.04,28.187-12.492v-0.91v-10.647c0-2.978,1.301-5.86,3.531-7.832 c3.066-2.711,7.568-3.381,11.289-1.667c3.672,1.691,6.086,5.457,6.086,9.499v10.647v0.847c1.367,0.172,2.73,0.378,4.086,0.624 c10.074,1.823,19.927,5.983,27.294,13.246c3.49,3.44,6.347,7.539,8.356,12.009c0.561,1.247,1.052,2.523,1.477,3.824 c0.396,1.213,0.794,2.462,0.983,3.728c0.302,2.021-0.006,4.109-0.871,5.958c-1.772,3.788-5.746,6.2-9.927,6.021 c-4.108-0.179-7.83-2.854-9.301-6.694c-0.438-1.142-0.657-2.351-1.104-3.49c-0.451-1.153-1.035-2.253-1.708-3.292 c-1.308-2.02-3.003-3.752-4.938-5.179c-4.19-3.094-9.272-4.706-14.35-5.607v39.582c6.035,1.445,12.075,3.021,17.857,5.301 c8.739,3.446,17.02,8.73,21.79,17.062c-0.74-1.298-1.46-2.563,0.025,0.043c1.458,2.56,0.762,1.34,0.03,0.057 C264.854,280.704,266.101,288.701,265.276,296.298z"/> </g><g> <path d="M242.493,300.169c-0.061,0.109-0.114,0.205-0.156,0.278C242.373,300.384,242.427,300.289,242.493,300.169z"/> </g></symbol><symbol id="project-management" viewBox="0 0 465.987 465.987"><title>project-management</title><g> <g> <path d="M372.735,236.547c-2.651-3.535-7.665-4.251-11.2-1.6c-1.698,1.274-2.821,3.17-3.12,5.272l-4.44,31.12 c-0.107,0.4-0.247,0.79-0.416,1.168c8.159-10.834,14.744-22.769,19.56-35.448L372.735,236.547z"/> </g> </g><g> <g> <path d="M346.047,278.203c-0.377,0-0.754-0.024-1.128-0.072l-47.52-6.792c-4.374-0.627-7.411-4.68-6.784-9.054 c0-0.001,0-0.001,0-0.002l4.44-31.12c0.619-4.375-2.425-8.423-6.8-9.042c-2.093-0.296-4.219,0.248-5.912,1.514l-25.152,18.856 c-3.535,2.651-8.549,1.935-11.2-1.6v0l-28.8-38.4c-2.651-3.535-1.935-8.549,1.6-11.2l25.144-18.856 c3.535-2.651,4.251-7.665,1.6-11.2c-1.274-1.698-3.17-2.821-5.272-3.12l-31.12-4.448c-4.374-0.622-7.416-4.673-6.793-9.047 c0-0.003,0.001-0.006,0.001-0.009l6.792-47.512c0.622-4.374,4.673-7.416,9.047-6.793c0.003,0,0.006,0.001,0.009,0.001l31.12,4.448 c3.201,0.464,6.364-1.058,8-3.848c1.699-2.773,1.508-6.307-0.48-8.88l-18.84-25.136c-2.651-3.535-1.935-8.549,1.6-11.2l4.536-3.4 c-7.348-0.355-14.713-0.158-22.032,0.592C143.087,51.905,86.347,123.274,95.369,202.29c4.915,43.045,28.949,81.589,65.438,104.945 c13.322,8.26,21.504,22.75,21.696,38.424v32.328c0,13.255,10.745,24,24,24h64c13.255,0,24-10.745,24-24v-31.664 c0.203-16.042,8.553-30.878,22.16-39.376c12.612-8.182,23.875-18.276,33.384-29.92 C348.841,277.766,347.461,278.172,346.047,278.203z M246.503,377.987h-16v-24h16V377.987z M230.503,337.987 c-0.005-21.152-13.048-40.112-32.8-47.68c-57.609-22.526-86.049-87.487-63.523-145.096c8.722-22.307,24.366-41.23,44.635-53.992 l8.488,13.536c-44.875,28.237-58.362,87.505-30.125,132.38c10.94,17.386,27.169,30.805,46.301,38.284 c25.928,9.917,43.044,34.808,43.024,62.568H230.503z"/> </g> </g><g> <g> <path d="M206.503,441.987v8c0,8.837,7.163,16,16,16h32c8.837,0,16-7.163,16-16v-8H206.503z"/> </g> </g><g> <g> <path d="M156.487,313.987c-4.74-3.073-9.305-6.409-13.672-9.992c-12.077,23.51-40.925,32.778-64.435,20.702 c-16.002-8.22-26.042-24.72-25.989-42.71c0.037-24.187,18.05-44.575,42.048-47.592c-2.936-8.83-5.057-17.911-6.336-27.128 l-1.4,6.656c-1.818,8.647-10.303,14.183-18.95,12.365c-2.071-0.435-4.035-1.277-5.778-2.477l-16.64-11.424l-14.576,14.544 l11.456,16.656c5.014,7.276,3.18,17.24-4.096,22.254c-1.745,1.202-3.711,2.046-5.784,2.482l-19.944,4.2v19.008l19.944,4.2 c8.647,1.821,14.181,10.307,12.36,18.954c-0.437,2.076-1.283,4.044-2.488,5.79l-11.448,16.568l14.576,14.544l16.624-11.456 c7.276-5.014,17.24-3.18,22.254,4.096c1.202,1.745,2.046,3.711,2.482,5.784l4.192,19.976h19.016l4.192-19.944 c1.82-8.647,10.305-14.182,18.952-12.362c2.073,0.436,4.039,1.28,5.784,2.482l16.616,11.424l17.16-17.16 C169.73,325.971,164.04,318.756,156.487,313.987z"/> </g> </g><g> <g> <rect x="206.503" y="409.987" width="64" height="16"/> </g> </g><g> <g> <path d="M438.255,137.915c-13.121-1.876-22.237-14.035-20.361-27.156c0.901-6.301,4.268-11.986,9.361-15.804l18.744-14.064 l-19.2-25.6l-18.744,14.056c-10.602,7.956-25.646,5.81-33.601-4.791c-3.815-5.084-5.458-11.475-4.567-17.769l3.312-23.2 l-31.672-4.52l-3.312,23.2c-1.877,13.121-14.035,22.237-27.156,20.361c-6.301-0.901-11.986-4.268-15.804-9.361l-14.064-18.776 l-25.6,19.2l14.056,18.744c7.954,10.603,5.807,25.646-4.796,33.601c-5.095,3.822-11.499,5.462-17.804,4.559l-23.2-3.312 l-4.544,31.68l23.2,3.312c13.121,1.877,22.237,14.035,20.361,27.156c-0.901,6.301-4.268,11.986-9.361,15.804l-18.736,14.064 l19.2,25.6l18.744-14.056c10.603-7.954,25.646-5.807,33.601,4.796c3.822,5.095,5.462,11.5,4.559,17.804l-3.312,23.2l31.744,4.544 l3.312-23.2c1.877-13.121,14.035-22.237,27.156-20.361c6.301,0.901,11.986,4.268,15.804,9.361l14.064,18.736l25.6-19.2 l-14.104-18.776c-7.951-10.605-5.8-25.648,4.805-33.599c5.084-3.812,11.472-5.452,17.763-4.561l23.2,3.312l4.52-31.672 L438.255,137.915z M340.391,188.099c-26.51,0-48-21.49-48-48s21.49-48,48-48c26.51,0,48,21.49,48,48 C388.36,166.596,366.888,188.068,340.391,188.099z"/> </g> </g><g> <g> <rect x="390.503" y="297.987" width="56" height="16"/> </g> </g><g> <g> <rect x="398.504" y="334.75" transform="matrix(0.6401 -0.7683 0.7683 0.6401 -134.8876 444.0254)" width="16" height="62.48"/> </g> </g><g> <g> <rect x="342.503" y="361.987" width="16" height="56"/> </g> </g><g> <g> <rect x="5.519" y="129.987" transform="matrix(0.9701 -0.2425 0.2425 0.9701 -32.3155 13.4577)" width="65.968" height="15.992"/> </g> </g><g> <g> <rect x="42.502" y="35.585" transform="matrix(0.5812 -0.8137 0.8137 0.5812 -35.8088 70.4021)" width="15.992" height="68.816"/> </g> </g><g> <g> <rect x="94.329" y="0.952" transform="matrix(0.9688 -0.2477 0.2477 0.9688 -5.2277 26.401)" width="16" height="66.056"/> </g> </g></symbol><symbol id="specialist-user" viewBox="0 0 349.667 349.667"><title>specialist-user</title><path d="M174.833,197.204c24.125,0,80.846-29.034,80.846-98.603C255.68,44.145,248.329,0,174.833,0 c-73.495,0-80.846,44.145-80.846,98.602C93.987,168.17,150.708,197.204,174.833,197.204z M106.07,82.146 c5.679-10.983,17.963-23.675,44.381-23.112c0,0,15.746,38.194,93.05,21.042c0.312,6.101,0.41,12.326,0.41,18.526 c0,34.005-15.015,55.075-27.612,66.762c-15.872,14.727-33.494,20.072-41.466,20.072c-7.972,0-25.594-5.345-41.466-20.072 c-12.597-11.687-27.612-32.757-27.612-66.762C105.756,93.101,105.836,87.581,106.07,82.146z"/><path d="M324.926,298.327c-4.127-25.665-12.625-58.724-29.668-70.472c-11.638-8.024-52.243-29.718-69.582-38.982l-0.3-0.16 c-1.982-1.059-4.402-0.847-6.17,0.541c-9.083,7.131-19.033,11.937-29.573,14.284c-1.862,0.415-3.39,1.738-4.067,3.521 l-10.733,28.291l-10.733-28.291c-0.677-1.783-2.205-3.106-4.067-3.521c-10.54-2.347-20.49-7.153-29.573-14.284 c-1.768-1.388-4.188-1.601-6.17-0.541c-17.133,9.155-58.235,31.291-69.831,39.107c-19.619,13.217-28.198,61.052-29.718,70.507 c-0.151,0.938-0.063,1.897,0.253,2.792c0.702,1.982,18.708,48.548,149.839,48.548s149.137-46.566,149.839-48.548 C324.989,300.224,325.077,299.264,324.926,298.327z M264.5,282.666l-25.667,8l-25.667-8v-13.81H264.5V282.666z"/></symbol><symbol id="trophy" viewBox="0 0 297 297"><title>trophy</title><g> <path d="M174.691,194.214c0-2.718-2.152-4.382-4.782-3.698c0,0-12.318,3.201-21.409,3.201s-21.409-3.201-21.409-3.201 c-2.63-0.684-4.782,0.98-4.782,3.698v14.329c0,2.718,2.224,4.941,4.941,4.941h42.5c2.718,0,4.941-2.224,4.941-4.941V194.214z"/> </g><g> <path d="M223.615,9.884c0-5.458-4.426-9.884-9.884-9.884H83.269c-5.458,0-9.884,4.426-9.884,9.884v81.539 c0,25.522,7.591,48.754,21.374,65.415c13.874,16.771,32.96,26.008,53.741,26.008c20.781,0,39.867-9.236,53.741-26.008 c13.783-16.661,21.374-39.893,21.374-65.415V9.884z"/> </g><g> <path d="M63.981,111.227c-13.525-5.033-19.753-16.706-19.753-36.111V30.969h18.285V11.202H34.346 c-5.459,0-9.884,4.425-9.884,9.884v54.029c0,32.961,15.788,53.039,44.818,57.729C66.895,125.985,65.109,118.749,63.981,111.227z"/> </g><g> <path d="M83.269,228.31c-5.458,0-9.884,4.425-9.884,9.884v48.923c0,5.458,4.426,9.884,9.884,9.884h130.463 c5.458,0,9.884-4.426,9.884-9.884v-48.923c0-5.459-4.426-9.884-9.884-9.884H83.269z"/> </g><g> <path d="M262.654,11.202h-28.168v19.767h18.285v44.146c0,19.405-6.228,31.078-19.753,36.111 c-1.128,7.522-2.913,14.759-5.299,21.618c29.03-4.69,44.818-24.768,44.818-57.729V21.086 C272.538,15.627,268.113,11.202,262.654,11.202z"/> </g></symbol><symbol id="money-1" viewBox="0 0 478.856 478.856"><title>money-1</title><g> <g> <path d="M406.872,160.017c-0.005,0-0.011,0-0.016,0h-400c-3.782-0.004-6.852,3.058-6.856,6.84c0,0.005,0,0.011,0,0.016v192 c-0.004,3.782,3.058,6.852,6.84,6.856c0.005,0,0.011,0,0.016,0h272c3.786,0,6.856-3.07,6.856-6.856 c0-3.786-3.07-6.856-6.856-6.856H13.712V173.729H400v17.144c-0.004,3.782,3.058,6.852,6.84,6.856c0.005,0,0.011,0,0.016,0 c3.782,0.004,6.852-3.058,6.856-6.84c0-0.005,0-0.011,0-0.016v-24C413.716,163.091,410.654,160.022,406.872,160.017z"/> </g> </g><g> <g> <path d="M360.36,128.185l-320-72c-1.776-0.397-3.637-0.075-5.176,0.896c-1.537,0.979-2.624,2.526-3.024,4.304l-16,72 c-0.822,3.698,1.51,7.362,5.208,8.184c3.698,0.822,7.362-1.51,8.184-5.208l14.504-65.288l313.296,70.488 c0.496,0.115,1.003,0.172,1.512,0.168c3.786-0.007,6.85-3.082,6.844-6.868C365.702,131.66,363.482,128.89,360.36,128.185z"/> </g> </g><g> <g> <path d="M321.504,88.513l-192-80c-3.337-1.391-7.182,0.038-8.8,3.272l-16,32c-1.807,3.342-0.563,7.517,2.78,9.324 c3.342,1.807,7.517,0.563,9.324-2.78c0.071-0.131,0.138-0.265,0.2-0.401v0.016l13.128-26.272l186.072,77.528 c3.504,1.462,7.53-0.192,8.992-3.696C326.662,94.002,325.008,89.976,321.504,88.513z"/> </g> </g><g> <g> <path d="M326.352,192.017h-63.496c-3.786,0-6.856,3.07-6.856,6.856c0,3.786,3.07,6.856,6.856,6.856h63.496 c3.786,0,6.856-3.07,6.856-6.856S330.138,192.017,326.352,192.017z"/> </g> </g><g> <g> <path d="M198.856,192.473c-38.881,0-70.4,31.519-70.4,70.4c0.04,38.864,31.536,70.36,70.4,70.4c38.881,0,70.4-31.519,70.4-70.4 S237.737,192.473,198.856,192.473z M198.856,320.473c-31.812,0-57.6-25.788-57.6-57.6c0.035-31.797,25.803-57.565,57.6-57.6 c31.812,0,57.6,25.788,57.6,57.6C256.456,294.685,230.668,320.473,198.856,320.473z"/> </g> </g><g> <g> <path d="M390.856,214.873c-42.4,0-88,10.016-88,32v192c0,21.984,45.6,32,88,32c42.4,0,88-10.016,88-32v-192 C478.856,224.889,433.256,214.873,390.856,214.873z M462.856,438.753c-1.208,4.44-25.2,16.12-72,16.12s-70.792-11.68-72-16 v-12.576c17.024,8.576,45.144,12.576,72,12.576c26.856,0,54.984-4.04,72-12.584V438.753z M462.856,406.753 c-1.208,4.44-25.2,16.12-72,16.12s-70.792-11.68-72-16v-12.576c17.024,8.576,45.144,12.576,72,12.576 c26.856,0,54.984-4.04,72-12.584V406.753z M462.856,374.753c-1.208,4.44-25.2,16.12-72,16.12s-70.792-11.68-72-16v-12.576 c17.024,8.576,45.144,12.576,72,12.576c26.856,0,54.984-4.04,72-12.584V374.753z M462.856,342.753 c-1.208,4.44-25.2,16.12-72,16.12s-70.792-11.68-72-16v-12.576c17.024,8.576,45.144,12.576,72,12.576 c26.856,0,54.984-4.04,72-12.584V342.753z M462.856,310.753c-1.208,4.44-25.2,16.12-72,16.12s-70.792-11.68-72-16v-12.576 c17.024,8.536,45.144,12.576,72,12.576c26.856,0,54.984-4.04,72-12.584V310.753z M462.856,278.753 c-1.208,4.44-25.2,16.12-72,16.12s-70.792-11.68-72-16v-12.576c17.024,8.536,45.144,12.576,72,12.576 c26.856,0,54.984-4.04,72-12.584V278.753z M390.856,262.873c-46.728,0-70.712-11.648-72-15.856v-0.048 c1.288-4.456,25.272-16.096,72-16.096c46.4,0,70.4,11.472,72,16C461.256,251.401,437.256,262.873,390.856,262.873z"/> </g> </g><g> <g> <path d="M134.856,320.009H74.384l-28.672-31.36v-52l31.664-30.92h57.48c3.786,0,6.856-3.07,6.856-6.856 c0-3.786-3.07-6.856-6.856-6.856H74.592c-1.792-0.004-3.515,0.694-4.8,1.944l-35.736,34.856c-1.335,1.56-2.067,3.547-2.064,5.6 v56.896c0,1.711,0.639,3.36,1.792,4.624l32.504,35.552c1.299,1.422,3.137,2.233,5.064,2.232h63.504 c3.786,0,6.856-3.07,6.856-6.856C141.712,323.079,138.643,320.009,134.856,320.009z"/> </g> </g><g> <g> <path d="M202.856,254.873h-8c-2.488,0-4-1.392-4-2c0-0.608,1.512-2,4-2h20c4.418,0,8-3.582,8-8s-3.582-8-8-8h-8 c0-4.418-3.582-8-8-8s-8,3.582-8,8v0.36c-8.873,1.253-15.595,8.648-16,17.6c0.573,10.489,9.507,18.548,20,18.04h8 c2.488,0,4,1.392,4,2c0,0.608-1.512,2-4,2h-20c-4.418,0-8,3.582-8,8s3.582,8,8,8h8c0,4.418,3.582,8,8,8s8-3.582,8-8v-0.36 c8.873-1.253,15.595-8.648,16-17.6C222.283,262.424,213.349,254.365,202.856,254.873z"/> </g> </g></symbol><symbol id="data-management-interface-symbol-with-gears-and-binary-code-numbers" viewBox="0 0 44.678 44.678"><title>data-management-interface-symbol-with-gears-and-binary-code-numbers</title><path d="M13.16,18.613c0,0-0.063-0.694-0.094-1.042c0.164-0.094,0.321-0.196,0.468-0.31c0.261,0.15,0.781,0.451,0.781,0.451 l0.887-0.233l1.006-1.739l-0.233-0.887c0,0-0.67-0.389-1.005-0.581c-0.009-0.193-0.03-0.385-0.069-0.569 c0.266-0.229,0.796-0.682,0.796-0.682v-0.917l-1.309-1.526h-0.917c0,0-0.435,0.372-0.652,0.559 c-0.236-0.114-0.485-0.208-0.745-0.279c-0.021-0.258-0.063-0.775-0.063-0.775l-0.648-0.648L9.36,9.597l-0.648,0.648 c0,0,0.055,0.681,0.082,1.021c-0.196,0.111-0.381,0.237-0.554,0.378c-0.281-0.13-0.846-0.387-0.846-0.387l-0.887,0.232 l-0.839,1.828l-0.029,0.125l0.263,0.762c0,0,0.654,0.299,0.982,0.449c0.014,0.216,0.047,0.425,0.101,0.63 c-0.25,0.21-0.749,0.635-0.749,0.635v0.916l1.299,1.534c0,0,0.755,0.09,0.796,0.067c0.041-0.022,0.122-0.067,0.122-0.067 s0.475-0.402,0.712-0.604c0.2,0.09,0.409,0.165,0.626,0.224c0.024,0.27,0.074,0.809,0.074,0.809l0.648,0.648l2-0.183 L13.16,18.613z M10.815,16.461c-1.116,0-2.021-0.905-2.021-2.021c0-1.117,0.905-2.022,2.021-2.022 c1.118,0,2.023,0.905,2.023,2.022C12.838,15.555,11.933,16.461,10.815,16.461z"/><path d="M18.718,25.188c0,0-0.048-0.525-0.071-0.789c0.124-0.07,0.243-0.147,0.354-0.233c0.197,0.112,0.59,0.341,0.59,0.341 l0.671-0.176l0.761-1.315l-0.176-0.67c0,0-0.506-0.294-0.76-0.439c-0.006-0.146-0.022-0.291-0.052-0.43 c0.201-0.172,0.602-0.516,0.602-0.516v-0.693l-0.99-1.154h-0.694c0,0-0.329,0.281-0.493,0.422 c-0.178-0.086-0.367-0.157-0.563-0.211c-0.016-0.195-0.047-0.586-0.047-0.586l-0.49-0.49l-1.514,0.123l-0.49,0.49 c0,0,0.042,0.515,0.062,0.771c-0.148,0.084-0.289,0.18-0.419,0.286c-0.212-0.098-0.639-0.292-0.639-0.292l-0.671,0.176 l-0.634,1.382l-0.022,0.094l0.199,0.576c0,0,0.495,0.226,0.742,0.339c0.011,0.164,0.036,0.32,0.077,0.477 c-0.189,0.159-0.566,0.479-0.566,0.479v0.693l0.982,1.16c0,0,0.571,0.068,0.602,0.051c0.031-0.017,0.092-0.051,0.092-0.051 s0.359-0.305,0.538-0.456c0.151,0.067,0.309,0.125,0.474,0.169c0.019,0.204,0.056,0.611,0.056,0.611l0.49,0.49l1.512-0.139 L18.718,25.188z M16.945,23.561c-0.844,0-1.528-0.686-1.528-1.529c0-0.844,0.684-1.528,1.528-1.528 c0.845,0,1.53,0.685,1.53,1.528C18.475,22.875,17.79,23.561,16.945,23.561z"/><path d="M32.653,6.125c-6.418,0-12.835,0-19.253,0c-1.612,0-1.612,2.5,0,2.5c6.418,0,12.835,0,19.253,0 C34.265,8.625,34.265,6.125,32.653,6.125z"/><path d="M32.653,12.042c-6.418,0-2.836,0-9.254,0c-1.611,0-1.611,2.5,0,2.5c6.418,0,2.836,0,9.254,0 C34.265,14.542,34.265,12.042,32.653,12.042z"/><polygon points="7.198,3 36.253,3 36.253,18.867 39.253,18.867 39.253,0 4.198,0 4.198,9.784 7.198,9.784 "/><path d="M33.97,35.793c-0.004-0.319-0.029-0.637-0.084-0.943c0.449-0.361,1.35-1.082,1.35-1.082l0.049-1.511l-2.076-2.586 l-1.514-0.049c0,0-0.736,0.592-1.104,0.887c-0.383-0.2-0.789-0.369-1.213-0.5c-0.021-0.427-0.064-1.282-0.064-1.282l-1.035-1.102 l-3.309,0.161l-1.104,1.034c0,0,0.055,1.125,0.08,1.687c-0.328,0.173-0.641,0.372-0.933,0.593 c-0.457-0.228-1.374-0.683-1.374-0.683l-1.475,0.337l-1.479,2.97l-0.055,0.203l0.392,1.271c0,0,1.063,0.526,1.595,0.791 c0.012,0.357,0.056,0.705,0.133,1.043c-0.423,0.334-1.269,1.009-1.269,1.009l-0.049,1.509l2.06,2.598c0,0,1.24,0.188,1.308,0.153 s0.204-0.104,0.204-0.104s0.805-0.638,1.207-0.957c0.324,0.16,0.664,0.295,1.02,0.402c0.025,0.446,0.078,1.338,0.078,1.338 l1.035,1.102l3.305-0.194l1.104-1.032c0,0-0.066-1.149-0.1-1.724c0.273-0.146,0.539-0.308,0.789-0.487 c0.42,0.262,1.264,0.786,1.264,0.786l1.475-0.338l1.752-2.813l-0.338-1.476C35.597,36.803,34.513,36.129,33.97,35.793z M27.005,39.179c-1.84-0.059-3.285-1.599-3.225-3.438c0.059-1.844,1.6-3.286,3.439-3.228c1.842,0.06,3.285,1.599,3.227,3.442 C30.386,37.796,28.847,39.238,27.005,39.179z"/><path d="M40.116,28.74c0,0-1.166-0.725-1.75-1.086c-0.004-0.344-0.029-0.684-0.09-1.013c0.484-0.389,1.453-1.165,1.453-1.165 l0.053-1.625l-2.234-2.782l-1.627-0.053c0,0-0.793,0.635-1.188,0.955c-0.412-0.217-0.848-0.399-1.307-0.539 c-0.021-0.46-0.066-1.379-0.066-1.379l-1.111-1.187l-3.562,0.174l-1.186,1.112c0,0,0.059,1.209,0.086,1.813 c-0.354,0.187-0.689,0.399-1.002,0.64c-0.492-0.246-1.48-0.734-1.48-0.734l-1.584,0.363l-1.593,3.192l-0.06,0.22l0.423,1.366 c0,0,0.746,0.37,1.335,0.662l0.66-0.619l0.27-0.251l0.367-0.018l2.656-0.129c0.465-1.506,1.877-2.584,3.527-2.53 c1.982,0.063,3.535,1.719,3.471,3.7c-0.016,0.533-0.156,1.031-0.379,1.479l1.865,2.324l0.232,0.289l-0.012,0.37l-0.031,0.958 c0.387,0.24,0.758,0.471,0.758,0.471l1.586-0.363l1.883-3.025L40.116,28.74z"/><path d="M5.927,25.189c0.294,0,0.537-0.08,0.73-0.238c0.193-0.157,0.339-0.381,0.436-0.67c0.097-0.291,0.146-0.672,0.146-1.145 c0-0.398-0.031-0.716-0.09-0.949c-0.061-0.237-0.145-0.436-0.25-0.601c-0.108-0.163-0.242-0.289-0.404-0.375 c-0.163-0.086-0.352-0.13-0.568-0.13c-0.293,0-0.536,0.078-0.729,0.236c-0.193,0.157-0.339,0.38-0.438,0.67 c-0.096,0.292-0.146,0.673-0.146,1.149c0,0.756,0.132,1.301,0.396,1.637C5.233,25.05,5.538,25.189,5.927,25.189z M5.378,21.778 c0.135-0.192,0.317-0.289,0.544-0.289c0.23,0,0.422,0.109,0.578,0.326c0.154,0.218,0.232,0.658,0.232,1.32 c0,0.659-0.078,1.098-0.232,1.316c-0.155,0.221-0.346,0.33-0.572,0.33c-0.227,0-0.418-0.109-0.572-0.328 c-0.155-0.219-0.232-0.658-0.232-1.318C5.122,22.477,5.207,22.023,5.378,21.778z"/><path d="M8.843,21.619c-0.207,0.185-0.449,0.342-0.725,0.473v0.477c0.154-0.056,0.328-0.141,0.521-0.254 c0.193-0.113,0.348-0.228,0.467-0.34v3.147H9.6v-4.04H9.281C9.196,21.256,9.05,21.434,8.843,21.619z"/><path d="M6.993,27.587c-0.107-0.163-0.24-0.289-0.404-0.375c-0.163-0.086-0.352-0.13-0.568-0.13 c-0.292,0-0.536,0.078-0.729,0.236c-0.193,0.156-0.337,0.379-0.436,0.67c-0.097,0.289-0.147,0.673-0.147,1.147 c0,0.756,0.133,1.302,0.398,1.636c0.221,0.278,0.525,0.418,0.914,0.418c0.294,0,0.538-0.08,0.732-0.238 c0.191-0.158,0.337-0.383,0.435-0.672c0.097-0.289,0.146-0.67,0.146-1.144c0-0.397-0.03-0.716-0.09-0.95 C7.182,27.949,7.098,27.751,6.993,27.587z M6.593,30.453c-0.155,0.22-0.345,0.33-0.572,0.33s-0.417-0.11-0.572-0.329 c-0.155-0.218-0.23-0.658-0.23-1.318c0-0.659,0.083-1.112,0.253-1.358c0.135-0.191,0.317-0.289,0.544-0.289 c0.231,0,0.423,0.109,0.578,0.326c0.155,0.219,0.232,0.658,0.232,1.32C6.825,29.796,6.748,30.234,6.593,30.453z"/><path d="M9.695,31.121v-4.04H9.376c-0.085,0.174-0.232,0.353-0.438,0.538c-0.206,0.185-0.448,0.342-0.724,0.473v0.477 c0.153-0.056,0.327-0.141,0.52-0.254s0.349-0.228,0.467-0.34v3.147L9.695,31.121L9.695,31.121z"/><path d="M12.403,31.121v-4.04h-0.318c-0.085,0.174-0.232,0.353-0.438,0.538c-0.206,0.185-0.448,0.342-0.724,0.473v0.477 c0.152-0.056,0.327-0.141,0.52-0.254s0.35-0.228,0.467-0.34v3.147L12.403,31.121L12.403,31.121z"/><path d="M15.952,27.587c-0.107-0.163-0.24-0.289-0.404-0.375c-0.163-0.086-0.352-0.13-0.567-0.13 c-0.293,0-0.537,0.078-0.73,0.236c-0.193,0.156-0.337,0.379-0.436,0.67c-0.097,0.291-0.146,0.673-0.146,1.148 c0,0.756,0.132,1.301,0.397,1.637c0.221,0.277,0.526,0.416,0.915,0.416c0.293,0,0.537-0.08,0.73-0.238 c0.193-0.157,0.337-0.381,0.435-0.67c0.097-0.291,0.147-0.672,0.147-1.145c0-0.398-0.031-0.716-0.092-0.949 C16.142,27.949,16.059,27.751,15.952,27.587z M15.552,30.453c-0.155,0.22-0.345,0.33-0.571,0.33c-0.228,0-0.418-0.11-0.574-0.329 c-0.155-0.218-0.23-0.658-0.23-1.318c0-0.659,0.085-1.112,0.253-1.358c0.137-0.191,0.317-0.289,0.544-0.289 c0.231,0,0.423,0.109,0.578,0.326c0.155,0.219,0.232,0.658,0.232,1.32C15.785,29.796,15.708,30.234,15.552,30.453z"/><path d="M6.993,34.332c-0.107-0.164-0.24-0.289-0.404-0.376c-0.163-0.086-0.352-0.13-0.568-0.13 c-0.292,0-0.536,0.078-0.729,0.236c-0.193,0.156-0.337,0.381-0.436,0.67c-0.097,0.291-0.147,0.672-0.147,1.148 c0,0.757,0.133,1.302,0.398,1.636c0.221,0.278,0.525,0.419,0.914,0.419c0.294,0,0.538-0.08,0.732-0.238 c0.191-0.158,0.337-0.383,0.435-0.672c0.097-0.289,0.146-0.672,0.146-1.145c0-0.396-0.03-0.716-0.09-0.95 C7.182,34.695,7.098,34.496,6.993,34.332z M6.593,37.199c-0.155,0.219-0.345,0.328-0.572,0.328s-0.417-0.108-0.572-0.328 c-0.155-0.219-0.23-0.657-0.23-1.318c0-0.659,0.083-1.111,0.253-1.357c0.135-0.191,0.317-0.289,0.544-0.289 c0.231,0,0.423,0.109,0.578,0.326c0.155,0.219,0.232,0.658,0.232,1.32C6.825,36.54,6.748,36.979,6.593,37.199z"/><path d="M10.119,34.332c-0.108-0.164-0.242-0.289-0.404-0.376c-0.163-0.086-0.352-0.13-0.568-0.13 c-0.292,0-0.536,0.078-0.729,0.236c-0.193,0.156-0.339,0.381-0.438,0.67c-0.097,0.291-0.146,0.672-0.146,1.147 c0,0.757,0.132,1.302,0.396,1.636c0.222,0.278,0.526,0.418,0.915,0.418c0.294,0,0.538-0.078,0.73-0.238 c0.193-0.157,0.339-0.381,0.436-0.672c0.097-0.289,0.146-0.67,0.146-1.144c0-0.397-0.031-0.716-0.09-0.95 C10.308,34.695,10.224,34.496,10.119,34.332z M9.719,37.199c-0.155,0.219-0.345,0.328-0.572,0.328s-0.418-0.108-0.572-0.328 c-0.155-0.219-0.232-0.657-0.232-1.318c0-0.659,0.085-1.111,0.255-1.357c0.135-0.191,0.317-0.289,0.544-0.289 c0.231,0,0.423,0.109,0.578,0.326c0.154,0.219,0.232,0.658,0.232,1.32C9.951,36.54,9.873,36.979,9.719,37.199z"/><path d="M13.243,34.332c-0.106-0.164-0.24-0.289-0.402-0.376c-0.165-0.086-0.354-0.13-0.568-0.13 c-0.292,0-0.536,0.078-0.729,0.236c-0.194,0.156-0.339,0.381-0.438,0.67c-0.097,0.291-0.146,0.672-0.146,1.147 c0,0.757,0.132,1.302,0.396,1.636c0.222,0.278,0.526,0.418,0.915,0.418c0.293,0,0.538-0.078,0.73-0.238 c0.193-0.157,0.337-0.381,0.435-0.672c0.097-0.289,0.147-0.67,0.147-1.144c0-0.397-0.031-0.716-0.092-0.95 C13.434,34.695,13.35,34.496,13.243,34.332z M12.844,37.199c-0.154,0.219-0.346,0.328-0.571,0.328 c-0.228,0-0.418-0.108-0.573-0.328c-0.155-0.219-0.231-0.657-0.231-1.318c0-0.659,0.085-1.111,0.254-1.357 c0.136-0.191,0.318-0.289,0.544-0.289c0.23,0,0.423,0.109,0.578,0.326c0.155,0.219,0.233,0.658,0.233,1.32 C13.077,36.54,12.999,36.979,12.844,37.199z"/><path d="M15.948,37.865v-4.039H15.63c-0.086,0.174-0.233,0.353-0.44,0.537c-0.207,0.186-0.448,0.343-0.724,0.474v0.478 c0.154-0.058,0.327-0.143,0.52-0.256s0.35-0.228,0.467-0.34v3.148h0.495V37.865z"/><path d="M18.615,40.912c-0.207,0.185-0.449,0.342-0.725,0.473v0.477c0.154-0.057,0.328-0.141,0.521-0.254 c0.193-0.112,0.348-0.227,0.467-0.34v3.147h0.494v-4.041h-0.319C18.967,40.548,18.821,40.727,18.615,40.912z"/><path d="M6.993,41.076c-0.107-0.163-0.24-0.288-0.404-0.375c-0.163-0.088-0.352-0.131-0.568-0.131 c-0.292,0-0.536,0.078-0.729,0.235c-0.193,0.157-0.337,0.382-0.436,0.671c-0.097,0.291-0.147,0.674-0.147,1.149 c0,0.756,0.133,1.3,0.398,1.636c0.221,0.276,0.525,0.416,0.914,0.416c0.294,0,0.538-0.078,0.732-0.236 c0.191-0.158,0.337-0.384,0.435-0.674c0.097-0.289,0.146-0.671,0.146-1.142c0-0.399-0.03-0.718-0.09-0.951 C7.182,41.439,7.098,41.24,6.993,41.076z M6.593,43.943c-0.155,0.22-0.345,0.33-0.572,0.33s-0.417-0.11-0.572-0.33 c-0.155-0.219-0.23-0.656-0.23-1.316c0-0.661,0.083-1.113,0.253-1.359c0.135-0.191,0.317-0.287,0.544-0.287 c0.231,0,0.423,0.107,0.578,0.326c0.155,0.217,0.232,0.657,0.232,1.32C6.825,43.285,6.748,43.724,6.593,43.943z"/><path d="M8.938,41.107c-0.207,0.186-0.448,0.342-0.724,0.474v0.477c0.153-0.057,0.327-0.141,0.52-0.254 c0.193-0.112,0.349-0.228,0.467-0.34v3.147h0.494V40.57H9.376C9.291,40.745,9.144,40.923,8.938,41.107z"/><path d="M11.647,41.107c-0.207,0.186-0.448,0.342-0.724,0.474v0.477c0.152-0.057,0.327-0.141,0.52-0.254 c0.193-0.112,0.35-0.228,0.467-0.34v3.147h0.494V40.57h-0.318C12,40.745,11.853,40.923,11.647,41.107z"/><path d="M15.952,41.076c-0.107-0.163-0.24-0.288-0.404-0.375c-0.163-0.088-0.352-0.131-0.567-0.131 c-0.293,0-0.537,0.078-0.73,0.235s-0.337,0.382-0.436,0.671c-0.097,0.291-0.146,0.674-0.146,1.149c0,0.756,0.132,1.3,0.397,1.636 c0.221,0.276,0.526,0.416,0.915,0.416c0.293,0,0.537-0.078,0.73-0.236s0.337-0.384,0.435-0.674 c0.097-0.289,0.147-0.671,0.147-1.142c0-0.399-0.031-0.718-0.092-0.951C16.142,41.439,16.059,41.24,15.952,41.076z M15.552,43.943c-0.155,0.22-0.345,0.33-0.571,0.33c-0.228,0-0.418-0.11-0.574-0.33c-0.155-0.219-0.23-0.656-0.23-1.316 c0-0.661,0.085-1.113,0.253-1.359c0.137-0.191,0.317-0.287,0.544-0.287c0.231,0,0.423,0.107,0.578,0.326 c0.155,0.217,0.232,0.657,0.232,1.32C15.785,43.285,15.708,43.724,15.552,43.943z"/></symbol><symbol id="sell" viewBox="0 0 612.006 612.006"><title>sell</title><g> <path d="M225.71,372.743h308.2c17.543,0,26.963-18.847,31.886-35.805l46.21-216.475H147.627l46.198,216.475 C197.498,354.099,208.174,372.743,225.71,372.743z M485.233,317.476l31.886-150.113c1.827-8.608,10.27-14.115,18.903-12.282 c8.608,1.827,14.109,10.294,12.282,18.903l-31.886,150.113c-1.594,7.495-8.208,12.632-15.58,12.632 c-1.095,0-2.209-0.117-3.323-0.351C488.9,334.551,483.411,326.09,485.233,317.476z M405.217,319.66l10.633-150.113 c0.615-8.781,8.214-15.389,17.026-14.774c8.781,0.621,15.395,8.245,14.774,17.032l-10.633,150.113 c-0.591,8.399-7.587,14.817-15.881,14.817c-0.381,0-0.757-0.012-1.144-0.037C411.21,336.064,404.595,328.441,405.217,319.66z M324.346,154.768c8.713-0.634,16.41,5.993,17.026,14.774l10.627,150.113c0.628,8.781-5.999,16.404-14.774,17.032 c-0.388,0.025-0.763,0.037-1.144,0.037c-8.294,0-15.291-6.418-15.881-14.817l-10.626-150.106 C308.944,163.019,315.565,155.389,324.346,154.768z M221.2,155.081c8.621-1.827,17.069,3.673,18.903,12.282l31.886,150.113 c1.828,8.608-3.667,17.075-12.288,18.903c-1.114,0.24-2.227,0.351-3.323,0.351c-7.365,0-13.986-5.138-15.58-12.632 l-31.886-150.113C207.085,165.369,212.586,156.909,221.2,155.081z"/> <path d="M245.88,459.608c-30.071,0-54.449,24.379-54.449,54.449c0,30.07,24.379,54.449,54.449,54.449 s54.449-24.379,54.449-54.449C300.33,483.986,275.951,459.608,245.88,459.608z M245.88,534.473 c-11.279,0-20.416-9.137-20.416-20.416c0-11.273,9.137-20.416,20.416-20.416s20.416,9.144,20.416,20.416 C266.303,525.336,257.159,534.473,245.88,534.473z"/> <path d="M504.517,459.608c-30.077,0-54.456,24.379-54.456,54.449c0,30.07,24.379,54.449,54.456,54.449 c30.071,0,54.449-24.379,54.449-54.449C558.966,483.986,534.587,459.608,504.517,459.608z M504.517,534.473 c-11.279,0-20.416-9.137-20.416-20.416c0-11.273,9.137-20.416,20.416-20.416c11.273,0,20.416,9.144,20.416,20.416 C524.939,525.336,515.789,534.473,504.517,534.473z"/> </g><path d="M586.987,437.401H174.873c-14.829,0-27.523-10.091-30.864-24.533L66.91,80.419h-48.45C8.264,80.419,0,72.155,0,61.959 S8.264,43.5,18.459,43.5h52.616c14.817,0,27.511,10.085,30.864,24.514l77.105,332.468h407.949c10.196,0,18.459,8.264,18.459,18.46 C605.447,429.143,597.189,437.401,586.987,437.401z"/></symbol><symbol id="map" viewBox="0 0 512 512"><title>map</title><path d="m256 75c-24.8125 0-45 20.1875-45 45s20.1875 45 45 45 45-20.1875 45-45-20.1875-45-45-45zm0 0"/><path d="m256 0c-66.167969 0-120 53.832031-120 120 0 22.691406 6.371094 44.796875 18.429688 63.925781l101.570312 162.074219 101.570312-162.074219c12.058594-19.128906 18.429688-41.234375 18.429688-63.925781 0-66.167969-53.832031-120-120-120zm0 195c-41.351562 0-75-33.648438-75-75s33.648438-75 75-75 75 33.648438 75 75-33.648438 75-75 75zm0 0"/><path d="m182.996094 512h145.957031l-11.535156-91h-123.175781zm0 0"/><path d="m197.992188 391h50.914062l-42.488281-67.386719zm0 0"/><path d="m343.828125 391h118.175781l-37.5-90h-92.21875zm0 0"/><path d="m49.996094 391h117.765625l11.25-90h-91.515625zm0 0"/><path d="m263.09375 391h50.476562l-8.527343-66.523438zm0 0"/><path d="m164.011719 421h-126.515625l-37.496094 91h152.765625zm0 0"/><path d="m474.503906 421h-126.832031l11.539063 91h152.789062zm0 0"/></symbol><symbol id="smartphone-with-internet" viewBox="0 0 32.754 32.754"><title>smartphone-with-internet</title><path d="M21.072,26.604c-0.316,0-0.625-0.02-0.934-0.047v2.104H4.189V3.508h15.949v2.194c0.31-0.027,0.617-0.047,0.935-0.047 c0.203,0,0.404,0.02,0.604,0.029V2.211C21.678,0.994,20.683,0,19.465,0H4.863C3.646,0,2.65,0.994,2.65,2.211v28.331 c0,1.216,0.996,2.212,2.213,2.212h14.602c1.218,0,2.213-0.996,2.213-2.212v-3.969C21.478,26.585,21.275,26.604,21.072,26.604z M9.829,1.595H14.5c0.148,0,0.268,0.12,0.268,0.271c0,0.148-0.119,0.267-0.268,0.267H9.829c-0.148,0-0.268-0.118-0.268-0.267 C9.561,1.715,9.68,1.595,9.829,1.595z M12.165,31.648c-0.611,0-1.105-0.496-1.105-1.105c0-0.611,0.494-1.104,1.105-1.104 c0.611,0,1.107,0.492,1.107,1.104C13.272,31.152,12.775,31.648,12.165,31.648z M27.555,12.274c0.052,0.064,0.115,0.106,0.183,0.129 l-0.303,0.188l-0.525-0.678l0.084-0.118C27.15,11.994,27.555,12.274,27.555,12.274z M21.072,7.099 c-4.988,0-9.033,4.045-9.033,9.031c0,4.989,4.045,9.031,9.033,9.031c4.988,0,9.031-4.042,9.031-9.031 C30.104,11.144,26.062,7.099,21.072,7.099z M15.775,9.894c0.316,0.475-0.438,0.551-0.438,0.551 c-0.078,0.022-0.156,0.056-0.234,0.096C15.315,10.31,15.542,10.096,15.775,9.894z M16.59,17.796 c-0.283,0.354-0.244,0.714-0.244,0.714c0.363,1.272-0.363,1.272-0.363,1.272c-0.525,0.077-0.322,0.712-0.322,0.712 c0,0.357-0.203,0.639-0.203,0.639c0.203,0.277,0.043,0.598,0.043,0.598c-0.041,0.062-0.059,0.131-0.061,0.199 c-1.549-1.477-2.518-3.559-2.518-5.865c0-0.477,0.043-0.94,0.121-1.396c0.047-0.079,0.076-0.13,0.076-0.13l0.324,0.199 c0.283-0.119,0.441,0.316,0.441,0.316c0.242-0.041,0.324,0.398,0.324,0.398c0.605-0.239,0.725,0.871,0.725,0.871 c0.324,0,0.688,0.396,0.688,0.396c0.604,0,0.725,0.397,0.725,0.397C16.871,17.038,16.59,17.796,16.59,17.796z M16.81,9.509 c-0.052,0.439-0.82,0.385-1.006,0.364c0.322-0.271,0.666-0.521,1.029-0.739L16.81,9.509z M27.957,13.543 c0,0-0.158,0.437-0.643,0.676c0,0-0.686-1.669-1.533-2.026c0,0,0.887,1.55,1.613,2.266c0,0,0.201,0.121,0.523-0.038 c0,0,0.039,1.312-0.728,2.185c0,0-0.199,0.479-0.119,0.992c0,0,0.119,0.875-0.524,1.312c0,0-0.283,0.197-0.283,0.674 c0,0,0,0.396-0.443,0.396c0,0-0.484,1.025-1.855,0.828c0,0,0-0.746-0.399-1.621c0,0-0.365-0.479,0.196-1.033 c0,0,0.527-0.238-0.278-1.151c0,0-0.522-0.438-0.242-0.914c0,0,0.08-0.397-0.12-0.517c0,0-0.562,0.117-0.685-0.277 c0,0-1.05,0.396-1.533,0.198c0,0-0.604,0.396-1.09-0.519c0,0-0.806-0.478-0.521-0.914c0,0,0.08-0.436,0.08-0.873 c0,0,0.08-0.716,0.887-1.072c0,0,0.242-0.717,0.604-0.717c0,0,0.768-0.041,1.172-0.196c0,0,0.523-0.16,0.844-0.08 c0,0,0.203,0.317,0.082,0.516c0,0,0.562-0.196,0.928,0.237c0,0,0.361-0.037,0.279-0.316c0,0,0.931,0.559,1.414,0.239 c0,0,0.119-0.795-0.322-0.756c0,0-0.686,0.04-1.01-0.437c0,0-0.361-0.16-0.283,0.08c0,0,0.043,0.237,0.324,0.316 c0,0-0.08,0.238-0.361,0.119c0,0-0.241-0.08-0.321-0.598c0,0-0.646-0.117-0.81-0.396c0,0-0.399,0.119,0.523,0.559 c0,0,0.365,0.275-0.121,0.476c0,0-0.322-0.158,0.041-0.237c0,0-0.08-0.16-0.443-0.279c0,0-0.239-0.236-0.28-0.396 c0,0-0.481,0.318-0.687,0.119c0,0-0.082,0.396-0.322,0.396c0,0-0.043,0.596-0.848,0.358h-0.244c0,0-0.201-0.556,0.082-0.716 c0,0,0.523,0.119,0.644,0c0.123-0.117,0.202-0.317-0.119-0.396c0,0-0.481-0.123-0.283-0.36c0,0,0.242-0.276,0.484,0.082 c0,0,0.403-0.28,0.926-0.317c0,0,0.931-0.4,0.687-0.679c0,0-0.603,0.358-0.886,0.162c0,0-0.795-0.263-0.147-0.895 c2.803,0.27,5.186,1.969,6.418,4.355c-0.121,0.051-0.287,0.097-0.439,0.059C27.906,12.542,28.424,13.122,27.957,13.543z"/></symbol><symbol id="support" viewBox="0 0 437.212 437.212"><title>support</title><path d="M404.812,41.206h-300c-18,0-32.4,14.8-32.4,32.4v186.4c0,18,14.8,32.4,32.4,32.4h206.8l46.8,47.2c2,2,4.4,3.2,7.2,3.2 c5.6,0,10.4-4.4,10.4-10.4v-40h28.8c18,0,32.4-14.8,32.4-32.4v-186.4C437.212,55.606,422.412,41.206,404.812,41.206z M150.812,201.606c-16.4,0-30-13.6-30-30c0-16.4,13.6-30,30-30c16.4,0,30,13.6,30,30 C180.812,188.006,167.612,201.606,150.812,201.606z M256.012,201.606c-16.4,0-30-13.6-30-30c0-16.4,13.6-30,30-30 c16.4,0,30,13.6,30,30C286.012,188.006,272.412,201.606,256.012,201.606z M360.812,201.606c-16.4,0-30-13.6-30-30 c0-16.4,13.6-30,30-30c16.4,0,30,13.6,30,30C390.812,188.006,377.212,201.606,360.812,201.606z"/><path d="M54.012,260.806v-63.6h-32.8c-11.6,0-21.2,9.6-21.2,21.2v122.4c-0.4,12.4,9.2,22,21.2,22h18.8v26.4 c0,3.6,3.2,6.8,6.8,6.8c2,0,3.6-0.8,4.8-2l30.8-30.8h136c11.6,0,21.2-9.6,21.2-21.2v-30.4h-134.8 C76.812,311.606,54.012,288.806,54.012,260.806z"/></symbol><symbol id="arrow-down-sign-to-navigate" viewBox="0 0 451.847 451.847"><title>arrow-down-sign-to-navigate</title><path d="M225.923,354.706c-8.098,0-16.195-3.092-22.369-9.263L9.27,151.157c-12.359-12.359-12.359-32.397,0-44.751 c12.354-12.354,32.388-12.354,44.748,0l171.905,171.915l171.906-171.909c12.359-12.354,32.391-12.354,44.744,0 c12.365,12.354,12.365,32.392,0,44.751L248.292,345.449C242.115,351.621,234.018,354.706,225.923,354.706z"/></symbol><symbol id="acrobat" viewBox="0 0 512 512"><title>acrobat</title><g> <g> <path d="M95.907,400.492h-0.015c-3.457,5.361-3.94,12.29-1.26,18.062c1.567,3.369,2.769,4.248,2.842,4.292 c-0.103-0.132,14.971-1.143,48.853-55.21c2.783-4.453,5.552-9.009,8.276-13.638C128.617,366.522,107.758,382.094,95.907,400.492z"/> </g> </g><g> <g> <path d="M241.63,239.754c-8.115,20.992-17.153,42.071-26.455,62.037c22.896-5.493,46.348-9.316,68.892-11.602 C269.814,274.662,254.975,257.42,241.63,239.754z"/> </g> </g><g> <g> <path d="M242.89,93.915c-3.677-6.592-7.427-9.668-9.111-9.668c-0.146,0-0.278,0.015-0.396,0.073 c-6.899,2.93-18.677,28.564-5.537,71.675c1.465,4.776,3.383,9.712,5.713,14.795C244.399,133.1,248.5,103.978,242.89,93.915z"/> </g> </g><g> <g> <path d="M425.291,337.782c-3.192-6.474-24.623-17.036-70.561-19.643c-0.322-0.029-0.645-0.044-0.967-0.059 c9.214,8.745,15.059,13.975,15.322,14.194c6.504,5.918,28.198,21.973,42.832,20.244 C420.994,351.421,426.677,340.574,425.291,337.782z"/> </g> </g><g> <g> <path d="M467,0H45C20.186,0,0,20.186,0,45v422c0,24.814,20.186,45,45,45h422c24.814,0,45-20.186,45-45V45 C512,20.186,491.814,0,467,0z M415.39,382.313c-31.23,3.794-62.856-24.521-66.387-27.744c-1.729-1.538-17.49-15.615-38.291-36.548 c-37.896,1.816-77.593,8.379-112.939,19.292c-9.375,18.179-18.618,34.541-27.056,47.871 c-15.989,25.32-45.736,69.261-75.586,67.471c-6.826-0.439-19.512-3.823-27.7-21.46c-7.09-15.249-5.874-32.813,3.267-46.963 c20.918-32.461,60.674-55.811,106.304-71.411c17.212-34.131,32.329-70.078,43.931-102.905 c-9.712-15.571-17.417-30.908-21.768-45.161c-17.271-56.616-1.318-97.925,22.471-108.047c13.652-5.786,33.267-2.886,47.461,22.617 c12.407,22.251,3.179,71.792-15.176,126.46c19.834,28.901,46.465,58.579,69.126,81.929c11.704-0.278,22.939-0.146,33.384,0.469 c36.519,2.08,82.778,10.049,95.757,36.299C463.958,348.234,442.747,379.094,415.39,382.313z"/> </g> </g></symbol><symbol id="music-player-play" viewBox="0 0 232.153 232.153"><title>music-player-play</title><path style="fill-rule:evenodd;clip-rule:evenodd;" d="M203.791,99.628L49.307,2.294c-4.567-2.719-10.238-2.266-14.521-2.266 c-17.132,0-17.056,13.227-17.056,16.578v198.94c0,2.833-0.075,16.579,17.056,16.579c4.283,0,9.955,0.451,14.521-2.267 l154.483-97.333c12.68-7.545,10.489-16.449,10.489-16.449S216.471,107.172,203.791,99.628z"/></symbol><symbol id="play-button" viewBox="0 0 60 60"><title>play-button</title><path d="M30,0C13.458,0,0,13.458,0,30s13.458,30,30,30s30-13.458,30-30S46.542,0,30,0z M45.563,30.826l-22,15 C23.394,45.941,23.197,46,23,46c-0.16,0-0.321-0.038-0.467-0.116C22.205,45.711,22,45.371,22,45V15c0-0.371,0.205-0.711,0.533-0.884 c0.328-0.174,0.724-0.15,1.031,0.058l22,15C45.836,29.36,46,29.669,46,30S45.836,30.64,45.563,30.826z"/></symbol><symbol id="play-button-1" viewBox="0 0 191.255 191.255"><title>play-button-1</title><path d="M162.929,66.612c-2.814-1.754-6.514-0.896-8.267,1.917s-0.895,6.513,1.917,8.266c6.544,4.081,10.45,11.121,10.45,18.833 s-3.906,14.752-10.45,18.833l-98.417,61.365c-6.943,4.329-15.359,4.542-22.512,0.573c-7.154-3.97-11.425-11.225-11.425-19.406 V34.262c0-8.181,4.271-15.436,11.425-19.406c7.153-3.969,15.569-3.756,22.512,0.573l57.292,35.723 c2.813,1.752,6.513,0.895,8.267-1.917c1.753-2.812,0.895-6.513-1.917-8.266L64.512,5.247c-10.696-6.669-23.661-7-34.685-0.883 C18.806,10.48,12.226,21.657,12.226,34.262v122.73c0,12.605,6.58,23.782,17.602,29.898c5.25,2.913,10.939,4.364,16.616,4.364 c6.241,0,12.467-1.754,18.068-5.247l98.417-61.365c10.082-6.287,16.101-17.133,16.101-29.015S173.011,72.899,162.929,66.612z"/></symbol></svg>