<svg height="512pt" viewBox="-31 0 512 512" width="512pt" xmlns="http://www.w3.org/2000/svg"><path d="m98.789062 91h81.210938v-82.210938zm0 0"/><path d="m450 0h-240v121h-120v60c66.167969 0 120 53.832031 120 120 0 30.15625-11.5625 57.425781-30 78.527344v71.472656h270zm-135 181c-24.8125 0-45-20.1875-45-45 0-19.53125 12.578125-36.023438 30-42.238281v-32.761719h30v32.761719c17.421875 6.214843 30 22.707031 30 42.238281h-30c0-8.277344-6.722656-15-15-15s-15 6.722656-15 15 6.722656 15 15 15c24.8125 0 45 20.1875 45 45 0 19.53125-12.578125 36.023438-30 42.238281v32.761719h-30v-32.761719c-17.421875-6.214843-30-22.707031-30-42.238281h30c0 8.277344 6.722656 15 15 15s15-6.722656 15-15-6.722656-15-15-15zm75 210h-150v-30h150zm0-60h-150v-30h150zm0 0"/><path d="m90 286c-8.277344 0-15 6.722656-15 15s6.722656 15 15 15 15-6.722656 15-15-6.722656-15-15-15zm0 0"/><path d="m90 211c-49.707031 0-90 40.292969-90 90s40.292969 90 90 90 90-40.292969 90-90-40.292969-90-90-90zm0 135c-24.8125 0-45-20.1875-45-45s20.1875-45 45-45 45 20.1875 45 45-20.1875 45-45 45zm0 0"/><path d="m150 404.304688c-17.722656 10.339843-38.046875 16.695312-60 16.695312s-42.277344-6.355469-60-16.695312v107.695312l60-30 60 30zm0 0"/></svg>